<svg width="126" height="125" viewBox="0 0 126 125" fill="none" xmlns="http://www.w3.org/2000/svg">
<path fill-rule="evenodd" clip-rule="evenodd" d="M69.0341 125H56.9647C53.9893 123.726 51.3896 121.458 49.7514 118.197C46.2274 111.184 48.9254 102.187 55.6364 98.5732C58.5474 97.0062 58.9994 96.2502 58.9994 92.9582C58.9994 90.2082 58.5144 89.0042 57.2494 88.6133C48.6174 85.9413 42.0154 80.2083 38.8914 72.6693L36.6314 67.2172H29.4154C22.5014 67.2172 22.0524 67.3643 18.6994 70.7172C15.8104 73.6062 14.4664 74.2172 10.9994 74.2172C7.5564 74.2172 6.18642 73.6042 3.39942 70.8172C0.707424 68.1252 0.000427464 66.6152 0.00342746 63.5672C0.0144275 52.1522 13.5944 47.2222 20.0504 56.2892C22.0324 59.0723 22.5004 59.2173 29.4904 59.2173H36.8444L38.0734 55.4673C38.7494 53.4053 39.9014 50.7962 40.6334 49.6702C41.8514 47.7952 41.4405 47.1063 35.7315 41.4533C30.9645 36.7323 29.1464 35.5062 27.9994 36.2342C25.5244 37.8052 18.7004 37.3413 14.9834 35.3493C10.0134 32.6842 6.57035 25.7162 7.50135 20.2052C9.35835 9.21425 22.8933 3.62625 31.4183 10.3322C35.8483 13.8172 37.3154 17.8113 36.6784 24.6533L36.1144 30.7173L41.6134 36.3032L47.1115 41.8883L51.7253 39.5532C54.2623 38.2682 56.9373 37.2173 57.6683 37.2173C58.6653 37.2173 58.9994 35.2093 58.9994 29.2173C58.9994 24.3073 58.5944 21.2173 57.9514 21.2173C57.3754 21.2173 55.8004 20.0263 54.4514 18.5713C52.6114 16.5863 51.9994 14.8132 51.9994 11.4712C51.9994 7.73925 52.5504 6.46625 55.3994 3.61725C60.2224 -1.20575 65.7764 -1.20575 70.5994 3.61725C73.4484 6.46625 73.9994 7.73925 73.9994 11.4712C73.9994 14.8132 73.3874 16.5863 71.5474 18.5713C70.1984 20.0263 68.6234 21.2173 68.0474 21.2173C67.4044 21.2173 66.9994 24.3073 66.9994 29.2173C66.9994 35.2093 67.3335 37.2173 68.3305 37.2173C69.0615 37.2173 71.7354 38.2673 74.2714 39.5513L78.8825 41.8862L85.3754 35.3013L91.8694 28.7173L90.3243 25.8192C87.9103 21.2882 88.9264 12.3132 92.3644 7.80625C98.5424 -0.29475 110.735 -2.27175 118.41 3.58225C129.506 12.0452 128.205 28.9902 115.981 35.2262C111.457 37.5342 103.707 37.8353 99.9994 35.8473C97.6144 34.5693 97.1934 34.8053 90.8534 40.9823L84.2084 47.4562L86.2214 50.8693C88.5934 54.8883 89.7324 65.6762 88.2384 69.9632C87.2554 72.7803 87.4665 73.0872 93.8045 78.0852C98.1404 81.5042 100.923 83.0502 101.946 82.6072C105.227 81.1852 109.144 81.0342 112.004 82.2192C115.537 83.6822 118.999 88.8612 118.999 92.6812C118.999 98.3932 113.193 104.217 107.499 104.217C101.883 104.217 95.9994 98.1762 95.9994 92.4092C95.9994 91.2262 94.0514 88.8162 91.2494 86.5342C85.9684 82.2315 84.2519 80.6312 82.7543 80.815C81.7734 80.9354 80.8865 81.8212 79.1535 83.2142C76.9874 84.9542 73.4784 86.9733 71.3574 87.6992C67.8714 88.8923 67.4714 89.3913 67.2044 92.8682C66.9384 96.3472 67.2374 96.8932 70.3174 98.5512C77.0704 102.185 79.7814 111.164 76.2474 118.197C74.6092 121.458 72.0095 123.726 69.0341 125ZM63.2454 14.0372C64.8974 13.8022 65.4994 13.0503 65.4994 11.2172C65.4994 9.38425 64.8974 8.63225 63.2454 8.39725C61.8924 8.20525 60.7494 8.70525 60.3884 9.64725C59.3924 12.2423 60.7874 14.3862 63.2454 14.0372ZM102.471 28.0223C114.51 33.5083 123.912 18.3162 113.632 9.98925C111.103 7.94125 105.458 7.75625 102.109 9.61325C95.3054 13.3842 95.5304 24.8603 102.471 28.0223ZM22.2315 29.2173C28.4205 29.2173 31.4284 21.6463 26.9994 17.2173C23.1694 13.3873 16.7974 15.7043 15.4464 21.4173C14.6694 24.7033 18.5955 29.2173 22.2315 29.2173ZM79.9354 56.5322C78.4884 52.7012 74.1734 48.2593 70.2814 46.5942C60.9744 42.6123 49.5664 47.2943 46.0664 56.5322C41.1684 69.4583 52.8013 83.3532 66.3873 80.8042C76.8293 78.8452 83.7094 66.5202 79.9354 56.5322ZM13.8364 63.3302C14.0224 62.0173 13.5724 60.5622 12.8364 60.0952C10.9804 58.9183 10.4224 59.0033 9.03944 60.6693C7.11744 62.9853 8.18544 65.7172 11.0134 65.7172C12.8724 65.7172 13.5844 65.1152 13.8364 63.3302ZM109.81 94.8352C111.083 93.5612 111.214 92.7803 110.375 91.4482C108.915 89.1302 106.6 88.7882 105.045 90.6612C102.344 93.9162 106.814 97.8312 109.81 94.8352ZM67.9994 116.217C70.7024 113.514 70.5174 109.645 67.5444 106.672C66.1944 105.322 64.1494 104.217 62.9994 104.217C60.1094 104.217 55.9994 108.594 55.9994 111.672C55.9994 117.391 63.8514 120.365 67.9994 116.217Z" fill="white"/>
</svg>
