<svg width="126" height="126" viewBox="0 0 126 126" fill="none" xmlns="http://www.w3.org/2000/svg">
<path fill-rule="evenodd" clip-rule="evenodd" d="M69.0306 125.081H56.9613C53.9859 123.807 51.3862 121.539 49.7479 118.278C46.2239 111.265 48.9219 102.268 55.6329 98.6543C58.5439 97.0873 58.996 96.3313 58.996 93.0393C58.996 90.2893 58.511 89.0853 57.246 88.6943C48.614 86.0223 42.0119 80.2893 38.8879 72.7503L36.6279 67.2983H29.412C22.498 67.2983 22.0489 67.4453 18.6959 70.7983C15.8069 73.6873 14.463 74.2983 10.996 74.2983C7.55298 74.2983 6.18301 73.6853 3.39601 70.8983C0.704006 68.2063 -0.0029905 66.6963 9.4951e-06 63.6483C0.0110095 52.2333 13.591 47.3033 20.047 56.3703C22.029 59.1533 22.4969 59.2983 29.4869 59.2983H36.841L38.07 55.5483C38.746 53.4863 39.898 50.8773 40.63 49.7513C41.848 47.8763 41.437 47.1873 35.728 41.5343C30.961 36.8133 29.143 35.5873 27.996 36.3153C25.521 37.8863 18.697 37.4223 14.98 35.4303C10.01 32.7653 6.56693 25.7973 7.49793 20.2863C9.35493 9.2953 22.8899 3.7073 31.4149 10.4133C35.8449 13.8983 37.3119 17.8923 36.6749 24.7343L36.111 30.7983L41.61 36.3843L47.108 41.9693L51.7219 39.6343C54.2589 38.3493 56.9339 37.2983 57.6649 37.2983C58.6619 37.2983 58.996 35.2903 58.996 29.2983C58.996 24.3883 58.591 21.2983 57.948 21.2983C57.372 21.2983 55.797 20.1073 54.448 18.6523C52.608 16.6673 51.996 14.8943 51.996 11.5523C51.996 7.8203 52.547 6.5473 55.396 3.6983C60.219 -1.1247 65.773 -1.1247 70.596 3.6983C73.445 6.5473 73.996 7.8203 73.996 11.5523C73.996 14.8943 73.3839 16.6673 71.544 18.6523C70.195 20.1073 68.6199 21.2983 68.044 21.2983C67.401 21.2983 66.996 24.3883 66.996 29.2983C66.996 35.2903 67.33 37.2983 68.327 37.2983C69.058 37.2983 71.7319 38.3483 74.268 39.6323L78.879 41.9673L85.372 35.3823L91.866 28.7983L90.3209 25.9003C87.9069 21.3693 88.923 12.3943 92.361 7.8873C98.539 -0.213695 110.732 -2.1907 118.407 3.6633C129.503 12.1263 128.202 29.0713 115.978 35.3073C111.454 37.6153 103.704 37.9163 99.996 35.9283C97.611 34.6503 97.19 34.8863 90.85 41.0633L84.205 47.5373L86.218 50.9503C88.59 54.9693 89.729 65.7573 88.235 70.0443C87.252 72.8613 87.463 73.1683 93.801 78.1663C98.137 81.5853 100.92 83.1313 101.943 82.6883C105.224 81.2663 109.141 81.1153 112.001 82.3003C115.534 83.7633 118.996 88.9423 118.996 92.7623C118.996 98.4743 113.19 104.298 107.496 104.298C101.88 104.298 95.996 98.2573 95.996 92.4903C95.996 91.3073 94.048 88.8973 91.246 86.6153C85.965 82.3125 84.2484 80.7122 82.7509 80.8961C81.77 81.0164 80.8831 81.9022 79.15 83.2953C76.984 85.0353 73.475 87.0543 71.354 87.7803C67.868 88.9733 67.4679 89.4723 67.2009 92.9493C66.9349 96.4283 67.234 96.9743 70.314 98.6323C77.067 102.266 79.778 111.245 76.244 118.278C74.6058 121.539 72.0061 123.807 69.0306 125.081ZM63.242 14.1183C64.894 13.8833 65.496 13.1313 65.496 11.2983C65.496 9.4653 64.894 8.7133 63.242 8.4783C61.889 8.2863 60.746 8.7863 60.385 9.7283C59.389 12.3233 60.784 14.4673 63.242 14.1183ZM102.468 28.1033C114.507 33.5893 123.909 18.3973 113.629 10.0703C111.1 8.0223 105.455 7.8373 102.106 9.6943C95.302 13.4653 95.527 24.9413 102.468 28.1033ZM22.228 29.2983C28.417 29.2983 31.425 21.7273 26.996 17.2983C23.166 13.4683 16.794 15.7853 15.443 21.4983C14.666 24.7843 18.592 29.2983 22.228 29.2983ZM79.932 56.6133C78.485 52.7823 74.17 48.3403 70.278 46.6753C60.971 42.6933 49.563 47.3753 46.063 56.6133C41.165 69.5393 52.7979 83.4343 66.3839 80.8853C76.8259 78.9263 83.706 66.6013 79.932 56.6133ZM13.833 63.4113C14.019 62.0983 13.569 60.6433 12.833 60.1763C10.977 58.9993 10.419 59.0843 9.03602 60.7503C7.11402 63.0663 8.18202 65.7983 11.01 65.7983C12.869 65.7983 13.581 65.1963 13.833 63.4113ZM109.807 94.9163C111.08 93.6423 111.211 92.8613 110.372 91.5293C108.912 89.2113 106.597 88.8693 105.042 90.7423C102.341 93.9973 106.811 97.9123 109.807 94.9163ZM67.996 116.298C70.699 113.595 70.514 109.726 67.541 106.753C66.191 105.403 64.146 104.298 62.996 104.298C60.106 104.298 55.996 108.675 55.996 111.753C55.996 117.472 63.848 120.446 67.996 116.298Z" fill="#00FFC6"/>
</svg>
