<svg width="120" height="120" viewBox="0 0 120 120" fill="none" xmlns="http://www.w3.org/2000/svg">
<path fill-rule="evenodd" clip-rule="evenodd" d="M0 6.47619L3.2381 3.2381L6.47619 0H41.0343H75.5914L83.5105 7.9181L91.4286 15.8371V31.94V48.0438L97.9114 41.6114C105.236 34.3429 108.96 32.96 114.081 35.6086C118.251 37.7648 120 40.7219 120 45.6191C120 49.8124 119.835 50.0276 105.714 64.2552L91.4286 78.6486V96.0857V113.524L88.1905 116.762L84.9524 120H45.7143H6.47619L3.2381 116.762L0 113.524V60V6.47619ZM64.2797 27.0426C62.851 25.5792 62.8571 22.7151 62.8571 17.1095V7.61905H35.6848C14.8238 7.61905 8.40571 7.89524 8.05619 8.80952C7.80571 9.46476 7.71143 32.9286 7.84762 60.9524L8.09524 111.905H45.7143H83.3333L83.599 99.2857C83.7448 92.3457 83.7181 86.6667 83.54 86.6667C83.361 86.6667 79.4429 87.9419 74.8333 89.5C68.5333 91.6295 66.0057 92.0943 64.6543 91.3714C62.2924 90.1067 62.38 88.6105 65.3457 79.5267C67.6467 72.4819 68.439 71.2905 75.8219 63.7905L83.8095 55.6762V42.1238V28.5714H75.1752C68.8558 28.5714 65.7783 28.5777 64.2797 27.0426ZM83.8095 19.7895C83.8095 19.1495 81.359 16.1495 78.3629 13.1229C75.3676 10.0962 72.3676 7.61905 71.6962 7.61905C70.821 7.61905 70.4762 9.5 70.4762 14.2857V20.9524H77.1429C81.7571 20.9524 83.8095 20.5943 83.8095 19.7895ZM15.2162 40.9305C13.68 39.3943 13.4952 38.62 14.3048 37.1067C15.2886 35.2695 16.1962 35.2171 42.66 35.4619L70 35.7143L70.3286 38.0419C70.9676 42.5657 69.2676 42.8571 42.199 42.8571C18.3181 42.8571 17.0524 42.7667 15.2162 40.9305ZM110.467 49.0562C112.752 46.9876 112.982 43.2914 110.874 42.4829C108.557 41.5933 108.105 41.741 105.875 44.1143L103.799 46.3248L106.175 48.5571C108.482 50.7248 108.608 50.739 110.467 49.0562ZM14.3743 54.4514C13.6857 53.1638 13.819 52.1114 14.861 50.6238C16.2505 48.64 16.9267 48.5714 35.1752 48.5714C55.4838 48.5714 56.6867 48.8571 56.0257 53.519L55.7143 55.7143L35.52 55.9714C16.64 56.2114 15.2638 56.1124 14.3743 54.4514ZM94.7152 64.8076C102.503 57.0609 102.673 56.7952 101.247 54.6171C100.44 53.3876 99.2848 52.381 98.679 52.381C98.0733 52.381 94.039 55.9381 89.7143 60.2848L81.8514 68.1886L84.2857 70.4762L86.719 72.7629L94.7152 64.8076ZM14.5257 68.8857C12.981 66.7733 13.0219 66.1619 14.8295 64.3533C16.0895 63.0943 19.3114 62.8571 35.1895 62.8571C55.4829 62.8571 56.6867 63.1429 56.0257 67.8048L55.7143 70L35.7162 70.2581C17.7552 70.4895 15.5962 70.3505 14.5257 68.8857ZM78.8581 79.8781C81.0057 79.0743 81.0152 79.0114 79.3343 76.7019C78.3905 75.4057 77.0724 74.3324 76.4048 74.3152C75.339 74.2895 74.7429 75.3676 72.8352 80.7762C72.3876 82.0457 73.5152 81.8771 78.8581 79.8781ZM15.619 84.0333C14.0133 82.9609 13.4971 80.6581 14.4476 78.8095C15.221 77.3067 17.1686 77.1429 34.241 77.1429C44.6562 77.1429 53.8552 77.4029 54.6838 77.7209C56.459 78.4019 56.68 81.9867 55.0476 83.6191C53.7695 84.8971 17.4829 85.2781 15.619 84.0333ZM56.1905 106.667C43.5705 106.667 41.2 105.795 42.2648 101.55L42.9067 98.9952L56.4533 99.26L70 99.5238L70.3286 101.851C70.8886 105.818 68.3971 106.667 56.1905 106.667Z" fill="white"/>
</svg>
