<svg width="135" height="135" viewBox="0 0 135 135" fill="none" xmlns="http://www.w3.org/2000/svg">
<path d="M36.25 92.5V63.5094C36.25 60.3237 36.8766 57.265 38.0282 54.4231M98.75 76.875V72.5963M50.1389 40.8404C55.1044 37.9409 61.0756 36.25 67.5 36.25C81.7469 36.25 93.7669 44.5664 97.5287 55.9375" stroke="#00FFC6" stroke-width="10" stroke-linecap="round" stroke-linejoin="round"/>
<path d="M55 98.75V85.1469M80 98.75V66.5806C80 60.185 74.4037 55 67.5 55C60.5963 55 55 60.185 55 66.5806V71.5444" stroke="#00FFC6" stroke-width="10" stroke-linecap="round" stroke-linejoin="round"/>
<path d="M80 128.75C75.9612 129.569 71.7806 130 67.5 130C32.9822 130 5 102.017 5 67.5C5 32.9822 32.9822 5 67.5 5C102.017 5 130 32.9822 130 67.5C130 69.0875 129.941 70.6606 129.824 72.2181" stroke="#00FFC6" stroke-width="10" stroke-linecap="round" stroke-linejoin="round"/>
<path d="M124.792 108.125H126.25C128.321 108.125 130 109.804 130 111.875V126.25C130 128.321 128.321 130 126.25 130H102.5C100.429 130 98.75 128.321 98.75 126.25V111.875C98.75 109.804 100.429 108.125 102.5 108.125H103.958M124.792 108.125V97.1875C124.792 93.5419 122.708 86.25 114.375 86.25C106.042 86.25 103.958 93.5419 103.958 97.1875V108.125M124.792 108.125H103.958" stroke="#00FFC6" stroke-width="10" stroke-linecap="round" stroke-linejoin="round"/>
</svg>
